<?xml version="1.0" encoding="utf-8"?>
<!-- Generator: Adobe Illustrator 16.0.0, SVG Export Plug-In . SVG Version: 6.00 Build 0)  -->
<!DOCTYPE svg PUBLIC "-//W3C//DTD SVG 1.1//EN" "http://www.w3.org/Graphics/SVG/1.1/DTD/svg11.dtd">
<svg version="1.1" id="Capa_1" xmlns="http://www.w3.org/2000/svg" xmlns:xlink="http://www.w3.org/1999/xlink" x="0px" y="0px"
	 width="17.873px" height="13.449px" viewBox="0 0 17.873 13.449" enable-background="new 0 0 17.873 13.449" xml:space="preserve">
<g>
	<path fill="#FF3500" d="M15.196,0.87c-0.208-0.143-0.531-0.12-0.718,0.05l-1.187,1.089c-0.186,0.17-0.171,0.431,0.03,0.58
		c0,0,1.836,1.346,1.836,4.237c0,2.742-1.933,4.32-1.933,4.32c-0.195,0.16-0.202,0.431-0.016,0.601l1.176,1.071
		c0.188,0.169,0.51,0.193,0.719,0.051c0,0,2.77-1.885,2.77-6.035C17.873,2.713,15.196,0.87,15.196,0.87"/>
	<path fill="#FFFFFF" d="M3.734,7.748c0,0-0.345-0.031-0.345,0.244c0,1.568,1.168,2.682,3.004,2.682
		c1.363,0,1.946-0.324,2.768-0.942c0.192-0.144,0.397-0.278,0.553-0.108c0.108,0.117,1.555,1.45,1.555,1.45
		c0.181,0.169,0.131,0.372-0.064,0.534c-0.192,0.162-2.353,1.842-4.836,1.842C3.118,13.449,0,12.036,0,6.711C0,2.422,2.43,0,5.997,0
		c3.833,0,5.998,2.674,5.998,6.283v0.912c0,0.372-0.302,0.552-0.551,0.552L3.734,7.748L3.734,7.748z M8.296,4.089
		C7.927,3.308,7.161,2.725,5.998,2.725c-1.162,0-1.928,0.583-2.298,1.364C3.488,4.568,3.409,4.922,3.382,5.501h5.233
		C8.587,4.922,8.508,4.568,8.296,4.089"/>
</g>
</svg>
